{"title":"Vanishing On 7th Street *2010* [DVDRip.XviD-miguel] [ENG]","uid":6382129,"size":739667097,"categoryP":"video","categoryS":"movies","magnet":"?xt=urn:btih:7078c281c359f94af7ff5af9142451afc77d47fe&amp;dn=Vanishing+On+7th+Street+%2A2010%2A+%5BDVDRip.XviD-miguel%5D+%5BENG%5D&amp;tr=udp%3A%2F%2Ftracker.openbittorrent.com%3A80&amp;tr=udp%3A%2F%2Fopen.demonii.com%3A1337&amp;tr=udp%3A%2F%2Ftracker.coppersurfer.tk%3A6969&amp;tr=udp%3A%2F%2Fexodus.desync.com%3A6969","seeders":1,"leechers":0,"uploader":"miguel1983","files":-1,"time":1305068199,"description":" &lt;a href=&quot;http://img705.imageshack.us/img705/8045/055yk.jpg&quot; rel=&quot;nofollow&quot; target=&quot;_NEW&quot;&gt;http://img705.imageshack.us/img705/8045/055yk.jpg&lt;/a&gt;\n\nCountry.......: USA\nGenre.........: Horror, Thriller\nDate release..: 12.09.2010 [World]\nDirector......: Brad Anderson\nWriters.......: Anthony Jaswinski\nDuration......: 90 min.\nMore..........: http://www.imdb.com/title/tt1452628\nTrailer.......: http://www.imdb.com/video/imdb/vi3918829593\nTrailer.......:\n\nPilot :\nThe population of Detroit has almost completely disappeared, but a few remain. As daylight disappears they realize that the Dark is coming for them. \n\nCats :\nHayden Christensen   \t ...  \tLuke\nJohn Leguizamo \t... \tPaul\nThandie Newton \t... \tRosemary\nJacob Latimore \t... \tJames\nTaylor Groothuis \t... \tBriana\nJordan Trovillion \t... \tConcession Girl\nArthur Cartwright \t... \tSecurity Guard\nNeal Huff \t... \tChicago Reporter\nHugh Maguire \t... \tPatient\nErin Nicole \t... \tPaige (as Erin Nicole Brolley)\nStephen Clark \t... \tMale TV Anchor\nCarolyn Taylor \t... \tFemale TV Anchor (as Caroline Clifford-Taylor)\nLarry Fessenden \t... \tBike Messenger\nNicholas Yu \t... \tChinese Reporter (as Nick Yu) \n\nData Technical :\n!!! SAMPLE !!!\nAudio.....: English\nSubtitles.: Spanish .sub\nFormat                           : AVI\nFormat/Info                      : Audio Video Interleave\nFile size                        : 699 MiB\nDuration                         : 1h 30mn\nOverall bit rate                 : 1 083 Kbps\nWriting application              : VirtualDubMod 1.5.10.2 (build 2540/release)\nWriting library                  : VirtualDubMod build 2540/release\nVideo\nID                               : 0\nFormat                           : MPEG-4 Visual\nFormat profile                   : Advanced Simple@L5\nFormat settings, BVOP            : Yes\nFormat settings, QPel            : No\nFormat settings, GMC             : No warppoints\nFormat settings, Matrix          : Default (MPEG)\nCodec ID                         : XVID\nCodec ID/Hint                    : XviD\nDuration                         : 1h 30mn\nBit rate                         : 943 Kbps\nWidth                            : 640 pixels\nHeight                           : 272 pixels\nDisplay aspect ratio             : 2.35:1\nFrame rate                       : 23.976 fps\nColor space                      : YUV\nChroma subsampling               : 4:2:0\nBit depth                        : 8 bits\nScan type                        : Progressive\nBits/(Pixel*Frame)               : 0.226\nStream size                      : 609 MiB (87%)\nWriting library                  : XviD 1.2.1 (UTC 2008-12-04)\nAudio\nID                               : 1\nFormat                           : MPEG Audio\nCodec ID                         : 55\nCodec ID/Hint                    : MP3\nDuration                         : 1h 30mn\nBit rate                         : 128 Kbps\nChannel(s)                       : 2 channels\nSampling rate                    : 48.0 KHz\nStream size                      : 82.2 MiB (12%)\nAlignment                        : Split accross interleaves\nInterleave, duration             : 24 ms (0.58 video frame)\nInterleave, preload duration     : 1526 ms\n\nScreen : &lt;a href=&quot;\nhttp://img717.imageshack.us/img717/2782/vanishingon7thstreet201.jpg&quot; rel=&quot;nofollow&quot; target=&quot;_NEW&quot;&gt;\nhttp://img717.imageshack.us/img717/2782/vanishingon7thstreet201.jpg&lt;/a&gt; &lt;a href=&quot;\nhttp://img806.imageshack.us/img806/8321/vanishingon7thstreet201v.jpg&quot; rel=&quot;nofollow&quot; target=&quot;_NEW&quot;&gt;\nhttp://img806.imageshack.us/img806/8321/vanishingon7thstreet201v.jpg&lt;/a&gt; &lt;a href=&quot;\nhttp://img718.imageshack.us/img718/2782/vanishingon7thstreet201.jpg&quot; rel=&quot;nofollow&quot; target=&quot;_NEW&quot;&gt;\nhttp://img718.imageshack.us/img718/2782/vanishingon7thstreet201.jpg&lt;/a&gt; &lt;a href=&quot;\nhttp://img38.imageshack.us/img38/2782/vanishingon7thstreet201.jpg&quot; rel=&quot;nofollow&quot; target=&quot;_NEW&quot;&gt;\nhttp://img38.imageshack.us/img38/2782/vanishingon7thstreet201.jpg&lt;/a&gt; &lt;a href=&quot;\nhttp://img808.imageshack.us/img808/7666/vanishingon7thstreet201h.jpg&quot; rel=&quot;nofollow&quot; target=&quot;_NEW&quot;&gt;\nhttp://img808.imageshack.us/img808/7666/vanishingon7thstreet201h.jpg&lt;/a&gt;","torrent":{"xt":"urn:btih:7078c281c359f94af7ff5af9142451afc77d47fe","amp;dn":"Vanishing+On+7th+Street+%2A2010%2A+%5BDVDRip.XviD-miguel%5D+%5BENG%5D","amp;tr":["udp%3A%2F%2Ftracker.openbittorrent.com%3A80","udp%3A%2F%2Fopen.demonii.com%3A1337","udp%3A%2F%2Ftracker.coppersurfer.tk%3A6969","udp%3A%2F%2Fexodus.desync.com%3A6969"],"infoHash":"7078c281c359f94af7ff5af9142451afc77d47fe","infoHashBuffer":{"type":"Buffer","data":[112,120,194,129,195,89,249,74,247,255,90,249,20,36,81,175,199,125,71,254]},"announce":[],"urlList":[]}}